<svg width="36" height="36" fill="none" xmlns="http://www.w3.org/2000/svg"><path d="M30.19 11.25H5.81a3.56 3.56 0 0 0-3.56 3.56v.377a.562.562 0 0 0 .563.563H33.75v-.94a3.56 3.56 0 0 0-3.56-3.56Zm2.868 9H2.942a.692.692 0 0 0-.692.692v9.247a3.56 3.56 0 0 0 3.56 3.561h24.38a3.56 3.56 0 0 0 3.56-3.56v-9.248a.692.692 0 0 0-.692-.692ZM21.375 22.5h3.313a1.165 1.165 0 0 1 1.187.934 1.126 1.126 0 0 1-1.125 1.316h-3.313a1.165 1.165 0 0 1-1.187-.934 1.126 1.126 0 0 1 1.125-1.316Zm-4.573 4.095a3.374 3.374 0 0 1-4.99 2.194 3.374 3.374 0 0 1-4.994-2.25 3.375 3.375 0 0 1 3.307-4.039 3.34 3.34 0 0 1 1.688.461 3.375 3.375 0 0 1 4.989 3.64v-.006Zm5.372 2.323a1.125 1.125 0 0 1-1.421.14 1.125 1.125 0 0 1-.171-1.726 1.158 1.158 0 0 1 1.592 0 1.125 1.125 0 0 1 0 1.586Zm5.951.332h-3.313a1.165 1.165 0 0 1-1.187-.934A1.125 1.125 0 0 1 24.75 27h3.313a1.165 1.165 0 0 1 1.187.934 1.125 1.125 0 0 1-1.125 1.316Zm.793-4.832a.816.816 0 0 1-.169.14.953.953 0 0 1-.405.169A1.125 1.125 0 0 1 27 23.625a.97.97 0 0 1 0-.22 1.099 1.099 0 0 1 .31-.574 1.126 1.126 0 0 1 .366-.248 1.125 1.125 0 0 1 .647-.062 1.012 1.012 0 0 1 .404.17.81.81 0 0 1 .169.14 1.126 1.126 0 0 1 .354.794 1.12 1.12 0 0 1-.332.793ZM22.32 2.666 11.351 9h18.225l-2.998-5.192a3.122 3.122 0 0 0-4.258-1.142Z" fill="#0088CF"/></svg>