<svg width="50" height="50" fill="none" xmlns="http://www.w3.org/2000/svg"><path d="M9.95 23.723V45.87H2.647V23.723H9.95Zm-3.656 5.58a1.594 1.594 0 1 0 0-3.187 1.594 1.594 0 0 0 0 3.188Zm25.668-9.895a7.019 7.019 0 1 1-7.019-7.018 7.031 7.031 0 0 1 7.019 7.018Zm-7.019-5.462a5.462 5.462 0 1 0 5.463 5.462 5.468 5.468 0 0 0-5.463-5.462Z" fill="#0088CF"/><path d="M26.615 22.716a3.278 3.278 0 0 1-1.376.466v.164a.573.573 0 0 1-.203.466.611.611 0 0 1-.39.144.636.636 0 0 1-.388-.128.58.58 0 0 1-.233-.48v-.182c-.505-.09-.898-.293-1.171-.586a1.94 1.94 0 0 1-.539-1.18 2.434 2.434 0 0 1 .037-.684c.046-.263.146-.514.293-.738.165-.239.38-.44.628-.591a2.51 2.51 0 0 1 .751-.312v-2.15a1.488 1.488 0 0 0-.276.258.956.956 0 0 0-.175.314 1.835 1.835 0 0 0-.08.39c-.04.32-.294.53-.587.489-.257-.03-.452-.224-.517-.592.014-.607.213-1.103.586-1.474.29-.284.653-.483 1.048-.576v-.262a.614.614 0 0 1 1.036-.445.602.602 0 0 1 .18.445v.195c.221.031.438.086.648.163.3.108.574.277.806.495.219.21.39.463.504.743.113.293.155.607.124.92a2.14 2.14 0 0 1-.732 1.42c-.39.31-.856.51-1.35.574v2.105c.276-.033.54-.134.768-.293.221-.155.383-.382.458-.642a.545.545 0 0 1 .552-.477.575.575 0 0 1 .445.174.493.493 0 0 1 .098.441 2.077 2.077 0 0 1-.945 1.426Zm-.431-4.797a1.057 1.057 0 0 0-.307-.817 1.225 1.225 0 0 0-.636-.332v2.09c.098-.023.194-.056.286-.097.153-.074.294-.169.418-.284a.691.691 0 0 0 .167-.236c.037-.105.06-.214.072-.324Zm-2.768 3.435a.611.611 0 0 0 .042.183c.028.084.07.162.125.232a1.019 1.019 0 0 0 .439.287v-1.841a1.023 1.023 0 0 0-.385.262c-.16.183-.235.475-.225.867l.004.01Zm15.018-.11a4.919 4.919 0 1 1 0-9.837 4.919 4.919 0 0 1 0 9.837Zm0-8.281a3.362 3.362 0 1 0 .001 6.724 3.362 3.362 0 0 0-.001-6.724Zm-7.816-1.13a3.852 3.852 0 1 1 .006-7.705 3.852 3.852 0 0 1-.006 7.705Zm0-6.147a2.296 2.296 0 1 0-.008 4.59 2.296 2.296 0 0 0 .008-4.59ZM27.04 28.751l1.366-.85a3.833 3.833 0 0 1 3.292-.326l.64.267-3.205 1.766a99.283 99.283 0 0 0-2.094-.857Zm12.544-.764.757.354-6.88 3.17a144.32 144.32 0 0 0-2.153-.968l4.47-2.463a4.29 4.29 0 0 1 3.806-.093Z" fill="#0088CF"/><path d="M13.035 30.86c.041-.025 4.12-2.49 6.953-2.344 2.404.126 10.118 3.497 12.998 4.835a7.21 7.21 0 0 1 1.538 1.562.808.808 0 0 1 .028.879.924.924 0 0 1-.889.488l-12.223-.868a.934.934 0 1 0-.133 1.863l12.223.869a2.78 2.78 0 0 0 2.647-1.427 2.674 2.674 0 0 0-.12-2.872 8.368 8.368 0 0 0-.889-1.06l7.715-3.555h.006l.644-.294a4.038 4.038 0 0 1 3.822.489L32.89 40.714a6.649 6.649 0 0 1-6.27 1.25L13.03 38.37a.938.938 0 0 0-.239-.031h-.974V30.99h.733a.934.934 0 0 0 .486-.132Z" fill="#0088CF"/></svg>