<svg width="41" height="41" fill="none" xmlns="http://www.w3.org/2000/svg"><path d="M20.67 3.417c-.34 0-.853.17-1.195.512l-3.417 3.075-4.27-.683c-1.026-.171-1.88.512-2.05 1.537l-.684 4.271-3.929 2.05c-.854.513-1.196 1.538-.854 2.392L6.32 20.5l-1.88 3.93c-.341.853 0 1.878.684 2.39l3.93 2.05.682 4.272c.171 1.025 1.025 1.537 2.05 1.537l4.271-.683 3.075 3.075c.684.683 1.709.683 2.392 0l3.075-3.075 4.27.683c1.026.171 1.88-.512 2.05-1.537l.684-4.271 3.93-2.05c.854-.513 1.195-1.538.683-2.392L34.679 20.5l1.88-3.93c.341-.853 0-1.878-.684-2.39l-3.93-2.05-.683-4.272c-.17-1.025-1.024-1.537-2.05-1.537l-4.27.683-3.075-3.075c-.342-.342-.855-.512-1.196-.512Zm-3.758 8.541c1.026 0 1.88.342 2.392 1.025.684.684.854 1.367.854 2.392v.854c0 1.025-.341 1.88-.854 2.392-.512.683-1.366 1.025-2.391 1.025-1.026 0-1.88-.342-2.392-.854a4.196 4.196 0 0 1-.854-2.563v-.854c0-1.025.341-1.708.854-2.392.512-.683 1.366-1.025 2.392-1.025Zm0 1.709c-.341 0-.683.341-.854.512-.17.342-.341.684-.341 1.196v.854c0 .513.17.854.341 1.196a.94.94 0 0 0 .855.512.94.94 0 0 0 .854-.512c.17-.342.341-.683.341-1.196v-.854c0-.512-.17-.854-.341-1.196a.94.94 0 0 0-.854-.512Zm6.321 0 1.538.854-7.004 12.983-1.538-.854 7.004-12.983Zm.854 7.687c1.026 0 1.88.342 2.392 1.025.513.683.854 1.538.854 2.392v.854c0 1.025-.341 1.88-.854 2.392-.512.512-1.366 1.025-2.392 1.025-1.024 0-1.879-.342-2.391-1.025-.513-.684-.854-1.538-.854-2.392v-.854c0-1.025.341-1.709.854-2.392.512-.683 1.366-1.025 2.391-1.025Zm0 1.709a.94.94 0 0 0-.854.512c-.17.342-.341.683-.341 1.196v.854c0 .512.17.854.341 1.196a.94.94 0 0 0 .854.512c.513 0 .684-.17.855-.512.17-.342.17-.684.17-1.196v-.854c0-.513-.17-.854-.341-1.196 0-.342-.342-.512-.684-.512Z" fill="#0088CF"/></svg>