<svg width="40" height="40" fill="none" xmlns="http://www.w3.org/2000/svg"><path d="M34.844 10.14h-6.845a3.863 3.863 0 0 0 .195-3.756 3.84 3.84 0 0 0-3.468-2.157c-.595 0-1.168.134-1.705.398-1.303.642-2.317 1.89-3.022 3.024-.706-1.135-1.719-2.383-3.022-3.025a3.83 3.83 0 0 0-1.704-.397 3.842 3.842 0 0 0-3.47 2.157A3.862 3.862 0 0 0 12 10.14H5.156c-.687 0-1.25.563-1.25 1.25v6.484c0 .687.563 1.25 1.25 1.25h.341v14.239a2.41 2.41 0 0 0 2.41 2.41h24.185a2.41 2.41 0 0 0 2.41-2.41v-14.24h.342c.687 0 1.25-.562 1.25-1.25V11.39c0-.687-.563-1.25-1.25-1.25ZM24.126 6.868a1.385 1.385 0 0 1 1.826.62 1.367 1.367 0 0 1-.62 1.828c-.518.255-1.189.384-1.997.384-.354 0-.693-.03-1.02-.068a2.42 2.42 0 0 0-.246-.566c.539-.887 1.255-1.803 2.057-2.198Zm-10.079.62a1.357 1.357 0 0 1 1.826-.62c.802.395 1.518 1.311 2.057 2.198a2.393 2.393 0 0 0-.246.566 8.588 8.588 0 0 1-1.019.068c-.807 0-1.48-.13-1.996-.383a1.368 1.368 0 0 1-.622-1.829Zm4.755 25.16H8.622v-5.672h10.18v5.672Zm-10.18-8.172v-5.353h10.18v5.353H8.622Zm22.756 8.172h-10.18v-5.672h10.18v5.672Zm0-8.172h-10.18v-5.353h10.18v5.353Z" fill="#0088CF"/></svg>