<svg width="18" height="27" fill="none" xmlns="http://www.w3.org/2000/svg"><path d="M9 9.008A4.493 4.493 0 0 0 4.508 13.5C4.508 16 6.5 17.992 9 17.992a4.493 4.493 0 0 0 4.492-4.492c0-2.46-2.031-4.492-4.492-4.492Zm0 7.422a2.926 2.926 0 0 1-2.93-2.93c0-1.602 1.29-2.89 2.93-2.89a2.884 2.884 0 0 1 2.89 2.89c0 1.64-1.288 2.93-2.89 2.93Zm5.703-7.578a1.05 1.05 0 0 0-1.055-1.055 1.05 1.05 0 0 0-1.054 1.055 1.05 1.05 0 0 0 1.054 1.054 1.05 1.05 0 0 0 1.055-1.054Zm2.969 1.054c-.078-1.406-.39-2.656-1.406-3.672C15.25 5.22 14 4.906 12.594 4.828c-1.446-.078-5.781-.078-7.227 0-1.406.078-2.617.39-3.672 1.406C.68 7.25.367 8.5.29 9.906c-.078 1.446-.078 5.781 0 7.227.078 1.406.39 2.617 1.406 3.672 1.055 1.015 2.266 1.328 3.672 1.406 1.446.078 5.781.078 7.227 0 1.406-.078 2.656-.39 3.672-1.406 1.015-1.055 1.328-2.266 1.406-3.672.078-1.445.078-5.781 0-7.227Zm-1.875 8.75c-.274.782-.899 1.367-1.64 1.68-1.173.469-3.907.352-5.157.352-1.29 0-4.023.117-5.156-.352a2.962 2.962 0 0 1-1.68-1.68c-.469-1.133-.352-3.867-.352-5.156 0-1.25-.117-3.984.352-5.156a3.013 3.013 0 0 1 1.68-1.64C4.977 6.233 7.71 6.351 9 6.351c1.25 0 3.984-.118 5.156.351.742.274 1.328.899 1.64 1.64.47 1.173.352 3.907.352 5.157 0 1.29.118 4.023-.351 5.156Z" fill="#242321"/></svg>