<svg width="170" height="170" fill="none" xmlns="http://www.w3.org/2000/svg"><g clip-path="url(#a)" fill="#F5F5F9"><path d="M133.214 46.747 65.004 22.53a4.083 4.083 0 0 0-5.217 2.483l-33.42 94.131a4.09 4.09 0 0 0 1.114 4.401c.398.36.864.637 1.37.816l68.21 24.217a13.446 13.446 0 0 0 17.15-8.163l27.166-76.519a13.445 13.445 0 0 0-8.163-17.15ZM90.55 126.995l-34.23-12.153a4.085 4.085 0 0 1-.389-7.54 4.092 4.092 0 0 1 3.123-.161l34.23 12.153a4.085 4.085 0 1 1-2.734 7.701Zm-11.04-23.191A26.791 26.791 0 0 1 61.72 79.94a26.787 26.787 0 1 1 51.996 7.582 26.813 26.813 0 0 1-34.206 16.282Z"/><path d="m70.629 76.688 2.55.96a3.667 3.667 0 0 0 6.771 2.547l15.543 5.848a3.667 3.667 0 0 0 6.771 2.548l2.223.836c.546.205 1.174-.004 1.544-.516l.165-.228c.082-.113.147-.235.195-.363.117-.31.133-.653.038-.968a1.516 1.516 0 0 1 .037-.968l.457-1.212.126-.682a4.856 4.856 0 0 0-.184-2.496l-1.406-3.982a.947.947 0 0 1 .115-.844c.345-.512.128-1.206-.423-1.354l-2.105-.563-6.365-2.696a22.467 22.467 0 0 0-2.209-.801l-4.728-1.44a3.67 3.67 0 0 0-1.502-.135l-5.97.694a3.683 3.683 0 0 1-1.064-.03l-5.094-.889c-.846-.147-1.725.21-2.3.933l-.731.92c-.255.32-.574.575-.931.742l-.334.156a.956.956 0 0 0-.386.335l-.791 1.184-.485 1.29c-.182.482.03 1.007.473 1.174Zm33.962 5.401 1.382.88c.095.06.155.164.159.277l.044 1.178a.345.345 0 0 1-.17.31l-.216.126a.343.343 0 0 1-.434-.072l-1.021-1.189a.341.341 0 0 1-.076-.16l-.189-.996a.343.343 0 0 1 .521-.354Zm-10.799-2.22-1.115-.42a.467.467 0 1 1 .33-.874l1.114.42a.468.468 0 0 1-.329.874Zm2.949 7.57a2.428 2.428 0 0 1-.04-1.218 1.529 1.529 0 0 0 .763.246 1.617 1.617 0 0 0 .022.677 1.42 1.42 0 0 0-.456.125 1.498 1.498 0 0 0-.289.17Zm2.635-2.314a1.648 1.648 0 0 0-.677.022 1.52 1.52 0 0 0-.296-.745 2.429 2.429 0 0 1 1.22-.04 1.518 1.518 0 0 0-.247.763Zm-1.234.275a1.636 1.636 0 0 0-.462.494 1.523 1.523 0 0 0-.737-.318c.203-.37.492-.673.834-.89a1.525 1.525 0 0 0 .365.714Zm-.227 3.501a2.442 2.442 0 0 1-.89-.834 1.519 1.519 0 0 0 .714-.366c.129.184.295.342.494.463a1.517 1.517 0 0 0-.318.737Zm.943-1.53a.662.662 0 1 1 .466-1.24.662.662 0 0 1-.466 1.24Zm-.3 1.772a1.515 1.515 0 0 0 .248-.764c.229.04.459.031.677-.022a1.515 1.515 0 0 0 .296.745 2.44 2.44 0 0 1-1.22.041Zm2.542-.99c-.187.27-.425.494-.695.665a1.482 1.482 0 0 0-.105-.319 1.419 1.419 0 0 0-.26-.394 1.595 1.595 0 0 0 .462-.495c.106.09.248.173.411.234.112.043.223.07.327.084a2.57 2.57 0 0 1-.14.225Zm.341-2.088c.114.388.133.807.041 1.22a1.529 1.529 0 0 0-.764-.248 1.636 1.636 0 0 0-.022-.676 1.525 1.525 0 0 0 .745-.296Zm-.603-.522a1.41 1.41 0 0 0-.395.26 1.634 1.634 0 0 0-.494-.462 1.38 1.38 0 0 0 .234-.41c.042-.113.069-.224.084-.327.371.203.673.493.89.835a1.48 1.48 0 0 0-.319.104ZM98.621 74.87l3.888 1.647a1.328 1.328 0 0 0 .182.062l.644.173c.098.026.141.14.085.224l-.611.91a2.312 2.312 0 0 1-2.399.974l-1.952-.498a.148.148 0 0 1-.087-.223 2.674 2.674 0 0 0 .311-2.073l-.261-1.024a.147.147 0 0 1 .2-.172ZM82.4 72.242l.03-.004 5.971-.693c.321-.038.637-.01.94.083l4.73 1.441a21.207 21.207 0 0 1 2.074.752c.385.163.672.497.775.902l.43 1.683a1.32 1.32 0 0 1-.987 1.615l-.44.1a1.32 1.32 0 0 1-.745-.047L82.25 73.36a.578.578 0 0 1-.373-.454.587.587 0 0 1 .523-.664Zm-7.973 6.802a2.437 2.437 0 0 1-.041-1.22 1.518 1.518 0 0 0 .764.248 1.617 1.617 0 0 0 .022.676 1.426 1.426 0 0 0-.456.125 1.5 1.5 0 0 0-.29.171Zm1.174 1.461a2.442 2.442 0 0 1-.89-.834 1.517 1.517 0 0 0 .713-.366c.13.184.296.343.495.463a1.51 1.51 0 0 0-.318.737Zm.644.243a1.52 1.52 0 0 0 .247-.764c.229.04.458.03.676-.022a1.516 1.516 0 0 0 .295.745 2.44 2.44 0 0 1-1.218.04Zm2.54-.991a2.43 2.43 0 0 1-.694.666 1.5 1.5 0 0 0-.105-.32 1.424 1.424 0 0 0-.26-.394 1.597 1.597 0 0 0 .462-.494 1.522 1.522 0 0 0 .737.318 2.336 2.336 0 0 1-.14.224Zm.052-1.916c.11-.05.207-.108.29-.171.114.388.132.806.04 1.219a1.523 1.523 0 0 0-.763-.247c.04-.229.031-.459-.022-.676.138-.012.296-.053.455-.125Zm-.884-1.632c.37.202.673.492.89.834a1.519 1.519 0 0 0-.714.365 1.65 1.65 0 0 0-.494-.463 1.515 1.515 0 0 0 .318-.737Zm-.556 2.381a.662.662 0 1 1-1.24-.467.662.662 0 0 1 1.24.467Zm-.088-2.624a1.522 1.522 0 0 0-.247.764 1.648 1.648 0 0 0-.677.022 1.526 1.526 0 0 0-.296-.745 2.433 2.433 0 0 1 1.22-.04Zm-1.742.644c.073.16.165.295.26.394a1.634 1.634 0 0 0-.462.495 1.527 1.527 0 0 0-.737-.318 2.44 2.44 0 0 1 .835-.89c.02.102.055.21.105.32Zm-1.794-4.377.81-.857a.343.343 0 0 1 .302-.104l1.619.25a.343.343 0 0 1 .16.609l-.8.625a.343.343 0 0 1-.163.07l-1.55.22a.343.343 0 0 1-.375-.23l-.079-.24a.343.343 0 0 1 .076-.343Z"/></g><defs><clipPath id="a"><path fill="#fff" transform="rotate(20.161 22.729 127.85)" d="M0 0h131.89v131.89H0z"/></clipPath></defs></svg>