<svg width="31" height="31" fill="none" xmlns="http://www.w3.org/2000/svg"><path d="M24.204 21.186c.221.375.333.812.333 1.313 0 .768-.23 1.408-.687 1.92-.458.513-1.118.816-1.983.907v1.314h-1.101v-1.309c-1.44-.148-2.331-.986-2.676-2.51l1.703-.445c.157.96.68 1.44 1.567 1.44.414 0 .72-.102.916-.309a1.04 1.04 0 0 0 .293-.743c0-.302-.098-.53-.293-.683-.195-.156-.63-.352-1.304-.59-.605-.21-1.079-.417-1.42-.625a2.335 2.335 0 0 1-.828-.86c-.214-.37-.32-.801-.32-1.292 0-.643.191-1.224.57-1.739.38-.514.976-.828 1.792-.943v-1.016h1.1v1.016c1.23.147 2.03.844 2.393 2.088l-1.52.623c-.295-.853-.751-1.281-1.372-1.281-.31 0-.56.095-.747.286a.95.95 0 0 0-.284.694c0 .276.09.488.272.638.182.147.57.331 1.166.548.653.239 1.168.466 1.538.678.373.212.668.507.892.88ZM31 20.828a9.687 9.687 0 0 1-9.687 9.688 9.687 9.687 0 0 1-9.688-9.688 9.687 9.687 0 0 1 9.688-9.688A9.687 9.687 0 0 1 31 20.828Zm-1.937 0c0-4.274-3.476-7.75-7.75-7.75s-7.75 3.476-7.75 7.75 3.476 7.75 7.75 7.75 7.75-3.476 7.75-7.75ZM15.5 3.39h11.625c.536 0 .969-.325.969-.726V1.21c0-.401-.433-.727-.969-.727H15.5c-.536 0-.969.326-.969.727v1.453c0 .4.433.726.969.726Zm0 3.875h11.625c.536 0 .969-.325.969-.726V5.086c0-.401-.433-.727-.969-.727H15.5c-.536 0-.969.326-.969.727v1.453c0 .401.433.726.969.726ZM.969 26.64h11.424a10.633 10.633 0 0 1-1.324-2.906H.969c-.536 0-.969.325-.969.727v1.453c0 .4.433.726.969.726Zm11.625.97H.969c-.536 0-.969.325-.969.726v1.453c0 .401.433.727.969.727h11.625c.535 0 .969-.326.969-.727v-1.453c0-.401-.434-.727-.97-.727ZM.969 22.765h9.873a10.561 10.561 0 0 1-.186-1.938c0-.327.02-.649.05-.969H.969c-.536 0-.969.326-.969.727v1.453c0 .401.433.727.969.727ZM15.5 11.14h1.4a10.554 10.554 0 0 1 4.413-.968c1.573 0 3.067.352 4.412.968h1.4c.536 0 .969-.325.969-.726V8.96c0-.401-.433-.727-.969-.727H15.5c-.536 0-.969.326-.969.727v1.453c0 .401.433.726.969.726Zm-14.531 0h11.625c.535 0 .969-.325.969-.726V8.96c0-.401-.434-.727-.97-.727H.97c-.536 0-.969.326-.969.727v1.453c0 .401.433.726.969.726Zm0 7.75h9.873a10.53 10.53 0 0 1 .991-2.906H.97c-.536 0-.969.325-.969.727v1.453c0 .401.433.727.969.727Zm0-3.875h11.424c.345-.53.738-1.021 1.17-1.48v-.7c0-.4-.434-.726-.969-.726H.969c-.536 0-.969.326-.969.727v1.453c0 .4.433.726.969.726Z" fill="#0088CF"/></svg>