<svg width="159" height="159" fill="none" xmlns="http://www.w3.org/2000/svg"><g clip-path="url(#a)" fill="#F5F5F9"><path d="M86.259 89.16a18.832 18.832 0 0 0 12.108-8.231l-6.28-2.29c-1.678 3.9-3.659 7.54-5.828 10.522Zm-9.989-1.208c1.792-1.287 5.037-5.324 8.03-12.152l-6.356-2.318c-2.103 7.153-2.219 12.331-1.674 14.47ZM63.88 68.354a18.83 18.83 0 0 0 3.966 14.092c.258-3.677 1.086-7.74 2.312-11.803l-6.278-2.289Zm33.353-9.29c-.258 3.677-1.086 7.74-2.313 11.804l6.28 2.29a18.825 18.825 0 0 0-3.967-14.094ZM80.778 65.71l6.356 2.319c2.103-7.15 2.219-12.33 1.677-14.469-1.794 1.286-5.039 5.323-8.033 12.15Zm-14.064-5.127 6.278 2.29c1.677-3.9 3.659-7.542 5.828-10.522a18.833 18.833 0 0 0-12.106 8.232Z"/><path d="m128.102 38.94-68.835-25.1a4.135 4.135 0 0 0-5.303 2.468l-34.638 94.993a4.142 4.142 0 0 0 1.09 4.465c.4.367.868.652 1.379.838l68.835 25.1a13.608 13.608 0 0 0 17.43-8.115l28.157-77.22a13.612 13.612 0 0 0-8.115-17.43ZM84.225 119.8l-34.543-12.595a4.138 4.138 0 0 1-2.469-5.303 4.139 4.139 0 0 1 5.303-2.469l34.542 12.596a4.138 4.138 0 0 1 2.47 5.303 4.136 4.136 0 0 1-5.303 2.468ZM73.25 96.231a27.116 27.116 0 1 1 34.764-16.186A27.143 27.143 0 0 1 73.25 96.231Z"/></g><defs><clipPath id="a"><path fill="#fff" transform="rotate(20.034 21.214 120.102)" d="M0 0h123.849v123.849H0z"/></clipPath></defs></svg>