<svg width="21" height="21" fill="none" xmlns="http://www.w3.org/2000/svg"><path d="m19.426 15.06-2.835-1.98a2.183 2.183 0 0 0-3.047.542l-.657.943c-1.103-.74-2.334-1.772-3.506-2.945-1.173-1.172-2.206-2.403-2.945-3.506l.942-.657a2.19 2.19 0 0 0 .542-3.048L5.94 1.575A2.19 2.19 0 0 0 4.153.63c-.244 0-.484.043-.712.128-.26.096-.5.213-.737.361l-.392.276c-.097.076-.188.16-.276.247-.477.477-.816 1.081-1.007 1.795-.816 3.059 1.205 7.683 5.03 11.507 3.21 3.211 7.068 5.206 10.067 5.206a5.6 5.6 0 0 0 1.439-.177c.714-.191 1.318-.53 1.795-1.007a2.92 2.92 0 0 0 .26-.293l.276-.394a3.95 3.95 0 0 0 .348-.718c.334-.901-.003-1.93-.818-2.5Z" fill="#0088CF"/></svg>